<mxfile host="app.diagrams.net" agent="Mozilla/5.0 (Windows NT 10.0; Win64; x64) AppleWebKit/537.36 (KHTML, like Gecko) Chrome/127.0.0.0 Safari/537.36" version="24.7.7">
  <diagram name="Page-1" id="VciVdy5dZiek1ppk2z1y">
    <mxGraphModel dx="2074" dy="1140" grid="1" gridSize="10" guides="1" tooltips="1" connect="1" arrows="1" fold="1" page="1" pageScale="1" pageWidth="850" pageHeight="1100" math="0" shadow="0">
      <root>
        <mxCell id="0" />
        <mxCell id="1" parent="0" />
        <mxCell id="KcUhytig5fopXIE5XckV-1" value="Show" style="ellipse;whiteSpace=wrap;html=1;" vertex="1" parent="1">
          <mxGeometry x="400" y="430" width="120" height="80" as="geometry" />
        </mxCell>
        <mxCell id="KcUhytig5fopXIE5XckV-2" value="Band" style="ellipse;whiteSpace=wrap;html=1;" vertex="1" parent="1">
          <mxGeometry x="70" y="90" width="120" height="80" as="geometry" />
        </mxCell>
        <mxCell id="KcUhytig5fopXIE5XckV-3" value="Booking" style="ellipse;whiteSpace=wrap;html=1;" vertex="1" parent="1">
          <mxGeometry x="240" y="230" width="120" height="80" as="geometry" />
        </mxCell>
        <mxCell id="KcUhytig5fopXIE5XckV-4" value="Homeowner" style="ellipse;whiteSpace=wrap;html=1;" vertex="1" parent="1">
          <mxGeometry x="580" y="210" width="120" height="80" as="geometry" />
        </mxCell>
        <mxCell id="KcUhytig5fopXIE5XckV-5" value="Ticket" style="ellipse;whiteSpace=wrap;html=1;" vertex="1" parent="1">
          <mxGeometry x="400" y="610" width="120" height="80" as="geometry" />
        </mxCell>
        <mxCell id="KcUhytig5fopXIE5XckV-6" value="Fan" style="ellipse;whiteSpace=wrap;html=1;" vertex="1" parent="1">
          <mxGeometry x="400" y="780" width="120" height="80" as="geometry" />
        </mxCell>
        <mxCell id="KcUhytig5fopXIE5XckV-7" value="" style="endArrow=classic;html=1;rounded=0;entryX=0.817;entryY=0.938;entryDx=0;entryDy=0;entryPerimeter=0;exitX=0;exitY=0;exitDx=0;exitDy=0;" edge="1" parent="1" source="KcUhytig5fopXIE5XckV-1" target="KcUhytig5fopXIE5XckV-3">
          <mxGeometry width="50" height="50" relative="1" as="geometry">
            <mxPoint x="400" y="610" as="sourcePoint" />
            <mxPoint x="450" y="560" as="targetPoint" />
          </mxGeometry>
        </mxCell>
        <mxCell id="KcUhytig5fopXIE5XckV-8" value="offers" style="text;html=1;align=center;verticalAlign=middle;resizable=0;points=[];autosize=1;strokeColor=none;fillColor=none;rotation=60;" vertex="1" parent="1">
          <mxGeometry x="360" y="350" width="50" height="30" as="geometry" />
        </mxCell>
        <mxCell id="KcUhytig5fopXIE5XckV-9" value="&lt;div&gt;1&lt;/div&gt;" style="text;html=1;align=center;verticalAlign=middle;resizable=0;points=[];autosize=1;strokeColor=none;fillColor=none;" vertex="1" parent="1">
          <mxGeometry x="410" y="400" width="30" height="30" as="geometry" />
        </mxCell>
        <mxCell id="KcUhytig5fopXIE5XckV-10" value="n" style="text;html=1;align=center;verticalAlign=middle;resizable=0;points=[];autosize=1;strokeColor=none;fillColor=none;" vertex="1" parent="1">
          <mxGeometry x="345" y="298" width="30" height="30" as="geometry" />
        </mxCell>
        <mxCell id="KcUhytig5fopXIE5XckV-11" value="" style="endArrow=classic;html=1;rounded=0;" edge="1" parent="1" source="KcUhytig5fopXIE5XckV-2" target="KcUhytig5fopXIE5XckV-3">
          <mxGeometry width="50" height="50" relative="1" as="geometry">
            <mxPoint x="400" y="610" as="sourcePoint" />
            <mxPoint x="450" y="560" as="targetPoint" />
          </mxGeometry>
        </mxCell>
        <mxCell id="KcUhytig5fopXIE5XckV-13" value="books" style="text;html=1;align=center;verticalAlign=middle;whiteSpace=wrap;rounded=0;rotation=45;" vertex="1" parent="1">
          <mxGeometry x="200" y="180" width="60" height="30" as="geometry" />
        </mxCell>
        <mxCell id="KcUhytig5fopXIE5XckV-14" value="1" style="text;html=1;align=center;verticalAlign=middle;resizable=0;points=[];autosize=1;strokeColor=none;fillColor=none;" vertex="1" parent="1">
          <mxGeometry x="180" y="150" width="30" height="30" as="geometry" />
        </mxCell>
        <mxCell id="KcUhytig5fopXIE5XckV-15" value="n" style="text;html=1;align=center;verticalAlign=middle;resizable=0;points=[];autosize=1;strokeColor=none;fillColor=none;rotation=0;" vertex="1" parent="1">
          <mxGeometry x="250" y="210" width="30" height="30" as="geometry" />
        </mxCell>
        <mxCell id="KcUhytig5fopXIE5XckV-16" value="" style="endArrow=classic;html=1;rounded=0;" edge="1" parent="1" source="KcUhytig5fopXIE5XckV-4" target="KcUhytig5fopXIE5XckV-1">
          <mxGeometry width="50" height="50" relative="1" as="geometry">
            <mxPoint x="400" y="610" as="sourcePoint" />
            <mxPoint x="450" y="560" as="targetPoint" />
          </mxGeometry>
        </mxCell>
        <mxCell id="KcUhytig5fopXIE5XckV-17" value="hosts" style="text;html=1;align=center;verticalAlign=middle;resizable=0;points=[];autosize=1;strokeColor=none;fillColor=none;rotation=-50;" vertex="1" parent="1">
          <mxGeometry x="505" y="350" width="50" height="30" as="geometry" />
        </mxCell>
        <mxCell id="KcUhytig5fopXIE5XckV-18" value="1" style="text;html=1;align=center;verticalAlign=middle;resizable=0;points=[];autosize=1;strokeColor=none;fillColor=none;" vertex="1" parent="1">
          <mxGeometry x="600" y="290" width="30" height="30" as="geometry" />
        </mxCell>
        <mxCell id="KcUhytig5fopXIE5XckV-19" value="n" style="text;html=1;align=center;verticalAlign=middle;resizable=0;points=[];autosize=1;strokeColor=none;fillColor=none;" vertex="1" parent="1">
          <mxGeometry x="505" y="408" width="30" height="30" as="geometry" />
        </mxCell>
        <mxCell id="KcUhytig5fopXIE5XckV-20" value="" style="endArrow=classic;html=1;rounded=0;entryX=0.5;entryY=0;entryDx=0;entryDy=0;exitX=0.5;exitY=1;exitDx=0;exitDy=0;" edge="1" parent="1" source="KcUhytig5fopXIE5XckV-1" target="KcUhytig5fopXIE5XckV-5">
          <mxGeometry width="50" height="50" relative="1" as="geometry">
            <mxPoint x="400" y="610" as="sourcePoint" />
            <mxPoint x="450" y="560" as="targetPoint" />
          </mxGeometry>
        </mxCell>
        <mxCell id="KcUhytig5fopXIE5XckV-21" value="sells" style="text;html=1;align=center;verticalAlign=middle;resizable=0;points=[];autosize=1;strokeColor=none;fillColor=none;rotation=0;" vertex="1" parent="1">
          <mxGeometry x="455" y="540" width="50" height="30" as="geometry" />
        </mxCell>
        <mxCell id="KcUhytig5fopXIE5XckV-22" value="1" style="text;html=1;align=center;verticalAlign=middle;resizable=0;points=[];autosize=1;strokeColor=none;fillColor=none;" vertex="1" parent="1">
          <mxGeometry x="465" y="510" width="30" height="30" as="geometry" />
        </mxCell>
        <mxCell id="KcUhytig5fopXIE5XckV-23" value="n" style="text;html=1;align=center;verticalAlign=middle;resizable=0;points=[];autosize=1;strokeColor=none;fillColor=none;" vertex="1" parent="1">
          <mxGeometry x="465" y="578" width="30" height="30" as="geometry" />
        </mxCell>
        <mxCell id="KcUhytig5fopXIE5XckV-25" value="" style="endArrow=classic;html=1;rounded=0;entryX=0.5;entryY=1;entryDx=0;entryDy=0;exitX=0.5;exitY=0;exitDx=0;exitDy=0;" edge="1" parent="1" source="KcUhytig5fopXIE5XckV-6" target="KcUhytig5fopXIE5XckV-5">
          <mxGeometry width="50" height="50" relative="1" as="geometry">
            <mxPoint x="400" y="610" as="sourcePoint" />
            <mxPoint x="450" y="560" as="targetPoint" />
          </mxGeometry>
        </mxCell>
        <mxCell id="KcUhytig5fopXIE5XckV-26" value="buys" style="text;html=1;align=center;verticalAlign=middle;resizable=0;points=[];autosize=1;strokeColor=none;fillColor=none;" vertex="1" parent="1">
          <mxGeometry x="455" y="720" width="50" height="30" as="geometry" />
        </mxCell>
        <mxCell id="KcUhytig5fopXIE5XckV-27" value="1" style="text;html=1;align=center;verticalAlign=middle;resizable=0;points=[];autosize=1;strokeColor=none;fillColor=none;" vertex="1" parent="1">
          <mxGeometry x="455" y="750" width="30" height="30" as="geometry" />
        </mxCell>
        <mxCell id="KcUhytig5fopXIE5XckV-28" value="n" style="text;html=1;align=center;verticalAlign=middle;resizable=0;points=[];autosize=1;strokeColor=none;fillColor=none;" vertex="1" parent="1">
          <mxGeometry x="455" y="688" width="30" height="30" as="geometry" />
        </mxCell>
      </root>
    </mxGraphModel>
  </diagram>
</mxfile>
